<?xml version="1.0" encoding="utf-8"?>
<!-- Generator: Adobe Illustrator 19.2.0, SVG Export Plug-In . SVG Version: 6.00 Build 0)  -->
<svg version="1.1" id="Layer_1" xmlns="http://www.w3.org/2000/svg" xmlns:xlink="http://www.w3.org/1999/xlink" x="0px" y="0px"
	 viewBox="0 0 149.2 172.2" style="enable-background:new 0 0 149.2 172.2;" xml:space="preserve">
<style type="text/css">
	.st0{fill:#585858;}
	.st1{fill:#FFFFFF;}
</style>
<polygon class="st0" points="149.2,129.2 74.6,172.2 0,129.2 0,43.1 74.6,0 149.2,43.1 "/>
<path class="st1" d="M125.6,65.9c-6.1,12.1-11.3,22.9-17,33.5c-0.9,1.7-3.7,3.4-5.6,3.4c-18.9,0.3-37.8,0.2-56.7,0
	c-1.9,0-4.6-1.3-5.4-2.8C35.1,89.4,29.7,78.4,23.5,66c7.7,2.8,14,5,20.3,7.6c1,0.4,1.7,2,2,3.2c1.5,7.6,4.9,11.5,10.7,11.8
	c5.3,0.2,9.2-2.4,11.1-7.4c2.2-5.4,0.2-9.7-6.5-14.4c-0.1-0.1-0.2-0.3-0.3-0.6c4.7-4.4,9.5-8.9,14.2-13.3c3.8,3.8,8.4,8.4,13.3,13.4
	c-0.7,0.5-2,1.4-3.1,2.3c-4.3,3.7-5.6,8.2-3.2,13.4c2.1,4.6,6,7,11.1,6.4c5.5-0.6,9.6-4,9.8-9.6c0.2-4.3,2.2-5.6,5.6-6.7
	C113.7,70.5,118.9,68.4,125.6,65.9z"/>
<path class="st1" d="M42.4,119.4c0-2.5,0-4.7,0-7.4c21.3,0,42.6,0,64.1,0c0,2.5,0,4.7,0,7.4C85.2,119.4,64,119.4,42.4,119.4z"/>
</svg>
